<svg width="611" height="1013" viewBox="0 0 611 1013" fill="none" xmlns="http://www.w3.org/2000/svg">
<g clip-path="url(#clip0_222_1145)">
<path d="M611 810.645C610.882 813.673 610.607 816.694 610.178 819.694C610.178 822.819 610.178 826.11 609.191 829.236C608.204 832.361 607.875 834.5 607.217 836.968C606.559 839.435 605.573 843.055 604.586 846.181L601.461 853.584C599.981 856.71 598.665 860 597.02 863.126L592.908 869.871C590.606 873.49 588.303 876.945 585.672 880.564C583.041 884.184 580.573 887.31 577.613 890.6L575.639 892.903C571.692 897.181 567.416 901.458 562.811 905.571C558.206 909.684 556.561 910.671 553.436 913.303C550.311 915.936 547.844 917.91 544.884 920.048L533.864 927.452L522.187 934.855C512.865 940.203 503.257 945.036 493.405 949.332L484.853 953.116C476.958 956.406 468.406 959.368 460.84 962.164L451.959 965.29L435.512 969.732L423.506 972.858C417.914 974.339 412.323 975.326 407.06 976.477L395.547 978.945C384.198 980.919 372.521 982.565 360.844 983.716H349.989C343.246 983.716 336.338 984.868 329.431 985.197H316.109H299.662H285.682H270.222L256.078 984.045L240.947 982.4L227.131 980.426L210.684 977.629L198.02 974.997C191.606 973.681 185.356 972.035 179.107 970.39L168.581 967.594C157.397 964.303 146.542 960.684 135.687 956.571C130.424 954.432 125.325 952.294 120.391 949.99L112.332 946.535C104.767 942.916 97.2014 938.968 89.9648 934.855C29.9339 900.142 -0.163798 854.571 0.000670393 809V839.271C0.000670393 884.677 29.9339 930.248 89.9648 964.961C97.2014 969.239 104.767 973.023 112.497 976.806L120.227 980.097L134.042 986.184H135.687C146.377 990.297 157.232 994.081 168.581 997.206L171.212 998.194L179.107 1000.17L198.02 1004.77L203.119 1005.93L210.684 1007.24C216.112 1008.39 221.375 1009.22 227.131 1010.04L233.71 1011.19H240.947L256.078 1013H263.314H270.222H285.682H293.412C295.55 1013 297.524 1013 299.662 1013H324.661H329.595L350.153 1011.68H358.541H361.008C372.686 1010.53 384.363 1008.89 395.711 1006.91H397.52L407.388 1004.77L423.835 1001.15L435.841 997.865C441.104 996.384 446.367 995.068 452.288 993.423L455.742 992.435L461.169 990.461C469.393 987.664 477.616 984.539 485.182 981.248L493.734 977.629C503.62 973.345 513.232 968.455 522.516 962.987L526.299 960.848C529.095 959.203 531.562 957.394 534.193 955.584C536.825 953.774 541.759 950.813 545.213 948.181L552.943 943.574L562.318 935.677L564.126 934.197C568.074 930.577 571.692 926.794 575.146 923.174L577.12 920.706C579.312 918.403 581.286 916.1 583.04 913.797C584.034 912.811 584.967 911.768 585.836 910.671C588.468 907.216 590.77 903.597 593.073 899.977C595.376 896.358 595.211 897.016 596.033 895.536C596.856 894.055 596.033 894.055 597.185 893.232C598.336 892.41 600.145 886.981 601.625 883.69L604.257 878.261C604.182 877.605 604.182 876.943 604.257 876.287C605.244 873.326 606.066 870.2 606.888 867.239C607.711 864.277 608.204 863.126 608.533 860.987C608.862 858.848 608.533 860 608.533 859.342C609.033 856.181 609.362 852.996 609.52 849.8C609.52 847.661 609.52 845.687 609.52 843.548V840.916L611 810.645Z" fill="url(#paint0_linear_222_1145)"/>
<path d="M520.929 684.719C640.474 753.677 641.131 865.323 522.244 934.281C403.357 1003.24 209.815 1003.24 90.7634 934.281C-28.2884 865.323 -29.1106 753.677 89.4479 684.719C208.006 615.76 401.383 615.76 520.929 684.719Z" fill="url(#paint1_linear_222_1145)"/>
<g style="mix-blend-mode:overlay" opacity="0.5">
<path d="M522.194 932.084C403.424 1001.04 209.207 1001.2 89.9425 932.084C30.6398 897.854 0.65892 852.927 0 808C0 853.75 29.6514 899.335 89.9425 934.223C209.866 1003.34 402.929 1003.18 522.194 934.223C582.156 899.335 611.807 853.75 610.983 808.164C610.819 853.091 581.332 897.854 522.194 932.084Z" fill="white"/>
</g>
<path style="mix-blend-mode:multiply" opacity="0.2" d="M556 713.314C556 715.776 556 718.239 556 720.538C556 722.837 556 725.792 555.177 728.419C554.353 731.046 554.024 732.688 553.53 734.822C553.035 736.957 552.212 739.748 551.389 742.211C550.565 744.674 549.742 746.316 548.754 748.286C547.766 750.256 546.448 753.54 545.131 756.167C543.813 758.794 542.99 759.779 541.837 761.585C540.013 764.586 538.034 767.491 535.908 770.287C533.767 773.079 531.626 775.87 529.321 778.497L527.674 780.467C524.38 783.915 520.922 787.363 517.134 790.811L509.394 797.05C507.088 799.02 504.947 800.827 502.477 802.633L493.419 808.708C490.29 810.678 487.326 812.812 483.867 814.783C476.239 819.147 468.377 823.094 460.317 826.604L453.236 829.56C446.813 832.351 440.226 834.814 433.473 837.113L426.392 839.575L413.546 843.188L403.665 845.815C399.054 846.964 394.443 847.785 389.832 848.77L380.444 850.74C371.057 852.382 361.506 853.696 351.954 854.681H343.061C337.461 854.681 331.862 855.666 326.592 855.83H315.723C311.276 855.83 306.665 855.83 302.054 855.83H290.691H278.01C274.057 855.83 270.269 855.83 266.482 854.845L253.966 853.531L242.767 851.89L229.427 849.591L219.052 847.621C213.947 846.471 208.677 845.158 203.572 843.68L195.008 841.381C185.785 838.754 176.892 835.799 168.164 832.351L155.483 827.097L149.06 824.306C142.802 821.35 136.544 818.067 130.78 814.783C81.3743 786.378 56.8361 749.107 57.0008 712V802.797C57.0008 839.904 81.539 877.175 130.78 905.58C136.709 908.863 142.802 912.147 149.225 915.103L155.648 917.894L166.846 922.82H168.164C176.892 926.268 185.95 929.223 195.173 932.014H197.313C199.29 932.014 201.595 932.999 203.736 933.492C208.841 934.97 213.947 936.283 219.217 937.432L223.334 938.417L229.592 939.403L242.767 941.701L248.037 942.686H253.966L266.482 944H272.41H278.01H290.691H297.113C298.76 944 300.407 944 302.219 944C306.83 944 311.276 944 315.888 944H322.64H326.757C332.356 944 337.956 944 343.225 942.851C345.531 942.851 347.837 942.851 350.142 942.851H352.118C361.835 941.866 371.222 940.552 380.609 938.91H381.927L390.161 937.268C394.772 936.283 399.383 935.462 403.83 934.313L413.711 931.686L426.557 928.074H429.356L433.803 926.432C440.555 924.133 446.978 921.67 453.4 919.043L460.647 915.923C468.716 912.311 477.115 908.371 484.197 904.102L487.161 902.296L493.584 898.027C496.713 895.892 499.842 894.086 502.642 891.952L509.723 886.369C512.354 884.42 514.882 882.338 517.299 880.13L518.946 878.817C522.075 875.861 525.039 872.906 527.839 869.786L529.486 867.816L534.426 862.234C535.034 861.396 535.584 860.518 536.073 859.607C538.199 856.81 540.178 853.905 542.002 850.904C542.918 849.767 543.745 848.559 544.472 847.292C544.715 846.677 544.99 846.074 545.295 845.486C546.691 842.925 547.955 840.294 549.083 837.605L551.224 833.172C551.224 833.172 551.224 832.023 551.224 831.53C552.089 829.113 552.804 826.646 553.365 824.142C553.957 822.475 554.452 820.775 554.847 819.052C554.847 819.052 554.847 818.231 554.847 817.738C555.009 815.114 555.009 812.482 554.847 809.857C554.938 808.162 554.938 806.463 554.847 804.767V802.633L556 713.314Z" fill="url(#paint2_linear_222_1145)"/>
<path d="M556 687.659C556 690.131 556 692.602 556 695.074C556 697.546 556 700.347 555.177 702.983C554.353 705.619 554.024 707.267 553.53 709.409C553.035 711.551 552.212 714.352 551.389 716.824C550.565 719.296 549.742 720.943 548.754 722.92C547.766 724.898 546.448 728.193 545.131 730.665L541.837 736.267C540.025 739.233 538.049 742.034 535.908 745C533.767 747.966 531.626 750.602 529.321 753.239L527.674 755.216C524.38 758.676 520.922 762.136 517.134 765.432C513.346 768.727 512.029 769.716 509.394 771.858C506.759 774 504.947 775.648 502.477 777.46L493.419 783.392C490.29 785.534 487.326 787.511 483.867 789.489C476.242 793.923 468.38 797.939 460.317 801.517L453.236 804.483C446.868 807.119 440.28 809.591 433.473 811.898C431.168 811.898 428.862 813.71 426.392 814.369L413.546 818.159L403.665 820.795L389.832 823.761L380.444 825.574C371.057 827.222 361.506 828.54 351.954 829.528L343.061 830.352L326.592 831.506H302.054H290.691H278.01L266.482 830.517C262.2 830.517 258.083 829.693 253.966 829.034C249.848 828.375 246.39 828.046 242.767 827.551L229.427 825.244L219.052 823.102L203.572 819.313L195.008 817.006C185.785 814.369 176.892 811.403 168.164 807.943C163.882 806.296 159.765 804.483 155.483 802.506L149.06 799.705C142.802 796.739 136.544 793.608 130.78 790.148C81.3743 761.642 56.8361 724.239 57.0008 687V778.119C57.0008 815.523 81.539 852.761 130.78 881.267C136.709 884.727 142.802 887.858 149.225 890.824L155.648 893.625C159.271 895.273 163.059 897.085 166.846 898.568H168.164C176.892 902.028 185.95 904.994 195.173 907.631H197.313L203.736 909.278L219.217 913.068C220.564 913.494 221.94 913.824 223.334 914.057L229.592 915.21L242.767 917.517H248.037H253.966C258.083 917.517 262.365 918.67 266.482 919H272.41H278.01H290.691H297.113H326.757L343.225 917.847H350.142H352.118C361.835 916.858 371.222 915.54 380.609 913.892H381.927L390.161 912.244L403.83 909.278L413.711 906.477L426.557 902.852H429.356L433.803 901.205C440.555 898.898 446.978 896.426 453.4 893.79L460.647 890.824C468.716 887.034 477.115 883.244 484.197 878.795L487.161 876.983C489.467 875.665 491.443 874.182 493.584 872.699L502.642 866.767L509.723 861.165C512.356 859.153 514.885 857.008 517.299 854.739L518.946 853.585C522.075 850.619 525.039 847.489 527.839 844.523L529.486 842.545C531.132 840.733 532.944 838.756 534.426 836.778L536.073 834.307C538.214 831.341 540.19 828.54 542.002 825.574C543.813 822.608 543.813 823.102 544.472 821.949L545.295 819.972C546.722 817.474 547.987 814.887 549.083 812.227C549.083 810.744 550.565 809.261 551.224 807.614C551.883 805.966 551.224 806.625 551.224 806.131C552.089 803.705 552.804 801.229 553.365 798.716C553.365 796.903 554.518 795.256 554.847 793.608C555.176 791.96 554.847 792.619 554.847 792.29C555.009 789.656 555.009 787.015 554.847 784.381C554.847 782.733 554.847 780.921 554.847 779.273V778.449L556 687.659Z" fill="url(#paint3_linear_222_1145)"/>
<path d="M481.84 585.19C580.527 641.716 580.527 733.079 482.991 789.605C385.454 846.132 227.719 846.132 129.853 789.605C31.9878 733.079 31.1654 641.716 128.702 585.354C226.238 528.992 384.139 528.827 481.84 585.19Z" fill="url(#paint4_linear_222_1145)"/>
<path opacity="0.5" d="M482.475 786.993C385.474 843.411 227.314 843.576 129.491 786.993C81.1545 759.031 56.6576 722.515 56 686C56 723.502 80.0037 761.005 129.491 789.625C228.136 846.207 385.474 846.043 482.475 789.625C531.798 761.005 555.802 723.831 554.98 686.164C554.651 722.68 530.483 759.031 482.475 786.993Z" fill="white"/>
<g style="mix-blend-mode:multiply" opacity="0.5">
<path opacity="0.02" d="M450.425 669.832C531.042 706.196 531.371 765.433 451.413 801.468C371.454 837.504 240.823 837.997 160.372 801.468C79.92 764.939 79.2619 705.867 159.385 669.832C239.507 633.796 369.974 633.467 450.425 669.832Z" fill="#FBFAFD"/>
<path opacity="0.04" d="M448.288 669.831C527.752 705.702 528.081 764.115 449.275 799.986C370.468 835.857 241.811 835.857 162.347 799.986C82.8824 764.115 82.5533 705.702 161.524 669.831C240.495 633.96 368.988 633.96 448.288 669.831Z" fill="#F7F5FA"/>
<path opacity="0.06" d="M505.164 734.597C505.26 684.524 415.916 643.761 305.608 643.549C195.3 643.337 105.799 683.757 105.703 733.83C105.607 783.902 194.952 824.666 305.26 824.878C415.568 825.089 505.068 784.669 505.164 734.597Z" fill="#F3F1F8"/>
<path opacity="0.08" d="M444.011 669.996C521.007 704.879 521.336 761.483 444.998 796.366C368.659 831.25 243.622 831.25 166.625 796.366C89.6282 761.483 89.2991 704.879 166.625 669.996C243.951 635.112 367.178 635.277 444.011 669.996Z" fill="#F0ECF6"/>
<path opacity="0.1" d="M441.871 670.159C517.716 704.549 518.045 760.166 442.858 794.556C367.671 828.946 244.608 828.123 168.763 795.214C92.9181 762.305 92.5891 705.208 167.941 670.818C243.292 636.428 366.191 635.934 441.871 670.159Z" fill="#ECE7F3"/>
<path opacity="0.12" d="M439.733 670.324C514.426 703.233 514.755 759.014 440.72 792.746C366.684 826.478 245.596 826.478 170.902 792.746C96.2089 759.014 95.8799 704.056 170.902 670.324C245.925 636.592 365.204 636.592 439.733 670.324Z" fill="#E8E2F1"/>
<path opacity="0.14" d="M437.757 670.325C511.134 703.234 511.463 757.699 438.579 790.772C353.186 824.012 258.433 824.012 173.039 790.772C99.6622 757.863 99.1687 703.563 173.039 670.325C246.91 637.087 364.215 637.087 437.757 670.325Z" fill="#E4DDEF"/>
<path opacity="0.16" d="M435.618 670.486C507.843 703.395 508.172 756.379 435.618 788.959C351.606 821.698 258.367 821.698 174.356 788.959C102.13 756.05 101.637 703.231 173.533 670.486C257.788 637.533 351.363 637.533 435.618 670.486Z" fill="#E0D9EC"/>
<path opacity="0.18" d="M433.48 670.488C504.554 703.397 504.883 755.065 433.48 787.151C350.854 819.405 259.122 819.405 176.496 787.151C105.422 754.242 104.928 702.739 176.496 670.488C259.152 638.395 350.824 638.395 433.48 670.488Z" fill="#DCD4EA"/>
<path opacity="0.2" d="M431.343 670.654C501.265 702.246 501.594 752.926 431.343 785.835C350.069 817.428 259.91 817.428 178.636 785.835C108.713 754.243 108.22 702.74 178.636 670.654C259.91 639.061 350.069 639.061 431.343 670.654Z" fill="#D8CFE8"/>
<path opacity="0.22" d="M429.202 670.818C497.973 701.917 498.302 753.091 430.025 783.531C350.078 814.634 261.378 814.634 181.431 783.531C112.825 752.432 112.331 701.259 181.431 670.818C261.128 639.897 349.505 639.897 429.202 670.818Z" fill="#D5CAE5"/>
<path opacity="0.24" d="M427.063 670.819C494.682 701.425 495.011 751.117 427.885 781.723C349.32 812.324 262.134 812.324 183.569 781.723C116.115 751.117 115.621 701.425 183.569 670.819C261.911 640.542 348.721 640.542 427.063 670.819Z" fill="#D1C5E3"/>
<path opacity="0.25" d="M424.925 670.982C490.735 700.929 491.722 749.799 425.748 779.911C348.535 809.852 262.922 809.852 185.709 779.911C119.9 749.799 118.913 700.929 184.887 670.982C262.066 640.865 347.746 640.865 424.925 670.982Z" fill="#CDC1E1"/>
<path opacity="0.27" d="M422.786 670.978C488.595 700.597 488.595 748.479 422.786 777.933C346.988 807.549 262.822 807.549 187.025 777.933C121.216 748.479 121.216 700.597 187.025 670.978C262.853 641.523 346.958 641.523 422.786 670.978Z" fill="#C9BCDE"/>
<path opacity="0.29" d="M469.132 724.144C469.211 683.159 395.984 649.793 305.575 649.619C215.166 649.446 141.811 682.53 141.732 723.515C141.654 764.5 214.881 797.865 305.29 798.039C395.699 798.213 469.053 765.128 469.132 724.144Z" fill="#C5B7DC"/>
<path opacity="0.31" d="M418.672 671.31C481.52 699.612 481.849 745.849 418.672 774.316C345.618 802.818 264.521 802.818 191.466 774.316C128.619 745.849 128.29 699.612 191.466 671.31C264.521 642.808 345.618 642.808 418.672 671.31Z" fill="#C1B2DA"/>
<path opacity="0.33" d="M416.533 671.309C478.229 699.282 478.394 744.697 416.533 772.505C344.855 800.474 265.283 800.474 193.605 772.505C131.908 744.697 131.579 699.282 193.605 671.309C265.322 643.548 344.816 643.548 416.533 671.309Z" fill="#BDADD7"/>
<path opacity="0.35" d="M414.396 671.473C474.94 698.787 475.105 743.379 414.396 770.2C344.069 797.508 266.071 797.508 195.745 770.2C135.2 742.885 134.871 698.294 195.745 671.473C266.077 644.197 344.063 644.197 414.396 671.473Z" fill="#B9A9D5"/>
<path opacity="0.37" d="M412.257 671.476C471.65 698.297 471.814 742.066 412.257 768.887C343.453 795.534 267.181 795.534 198.377 768.887C138.984 742.066 138.655 698.297 198.377 671.476C267.181 644.828 343.453 644.828 412.257 671.476Z" fill="#B6A4D3"/>
<path opacity="0.39" d="M410.119 671.64C468.36 697.967 468.525 740.749 410.119 767.076C342.472 793.234 267.505 793.234 199.859 767.076C141.782 740.749 141.453 697.967 199.859 671.64C267.473 645.307 342.505 645.307 410.119 671.64Z" fill="#B29FD0"/>
<path opacity="0.41" d="M407.98 671.804C465.069 697.473 465.234 739.432 407.98 765.101C341.748 790.933 268.229 790.933 201.997 765.101C145.072 739.432 144.743 697.473 201.997 671.804C268.229 645.972 341.748 645.972 407.98 671.804Z" fill="#AE9ACE"/>
<path opacity="0.43" d="M405.841 671.803C461.779 697.143 461.943 737.621 405.841 763.29C340.994 788.638 268.983 788.638 204.136 763.29C148.363 738.115 148.034 697.472 204.136 671.803C269.031 646.712 340.946 646.712 405.841 671.803Z" fill="#AA95CC"/>
<path opacity="0.45" d="M403.702 671.969C458.488 696.651 458.652 736.8 403.702 761.482C340.207 786.168 269.769 786.168 206.274 761.482C151.653 736.8 151.324 696.651 206.274 671.969C269.769 647.284 340.207 647.284 403.702 671.969Z" fill="#A691C9"/>
<path opacity="0.47" d="M401.562 671.971C455.032 696.159 455.361 735.485 401.562 759.673C339.45 783.858 270.525 783.858 208.412 759.673C154.943 735.485 154.613 696.159 208.412 671.971C270.525 647.786 339.45 647.786 401.562 671.971Z" fill="#A28CC7"/>
<path opacity="0.49" d="M399.59 672.134C451.744 695.828 452.073 734.167 399.59 757.862C338.862 781.562 271.445 781.562 210.718 757.862C158.399 734.167 158.07 695.828 210.718 672.134C271.454 648.482 338.853 648.482 399.59 672.134Z" fill="#9E87C5"/>
<path opacity="0.51" d="M397.451 672.136C448.453 695.337 448.782 732.853 397.451 756.054C338.075 779.093 272.231 779.093 212.856 756.054C161.689 732.853 161.36 695.337 212.856 672.136C272.24 649.145 338.066 649.145 397.451 672.136Z" fill="#9B82C2"/>
<path opacity="0.53" d="M395.311 672.299C444.668 694.841 445.49 731.535 395.311 754.571C337.122 777.28 272.524 777.28 214.336 754.571C164.979 731.864 164.156 695.17 214.336 672.299C272.53 649.622 337.116 649.622 395.311 672.299Z" fill="#977DC0"/>
<path opacity="0.55" d="M393.171 672.465C442.528 694.514 442.528 730.385 393.171 752.269C336.563 774.322 273.74 774.322 217.132 752.269C167.775 730.385 167.775 694.514 217.132 672.465C273.749 650.46 336.554 650.46 393.171 672.465Z" fill="#9378BE"/>
<path opacity="0.57" d="M391.034 672.464C438.581 694.02 438.746 729.068 391.034 750.459C335.753 772.022 274.389 772.022 219.108 750.459C171.725 729.068 171.396 694.02 219.108 672.464C274.422 651.077 335.72 651.077 391.034 672.464Z" fill="#8F74BB"/>
<path opacity="0.59" d="M388.401 672.627C434.796 693.524 434.961 727.749 388.401 748.647C334.502 769.709 274.651 769.709 220.752 748.647C174.521 727.749 174.192 693.524 220.752 672.627C274.651 651.564 334.502 651.564 388.401 672.627Z" fill="#8B6FB9"/>
<path opacity="0.61" d="M386.757 672.627C432.001 693.195 432.165 726.433 386.757 746.837C334.21 767.238 275.933 767.238 223.386 746.837C178.307 726.433 177.978 693.195 223.386 672.627C275.933 652.226 334.21 652.226 386.757 672.627Z" fill="#876AB7"/>
<path opacity="0.63" d="M384.616 672.789C428.708 692.699 428.872 725.115 384.616 745.025C333.396 764.935 276.577 764.935 225.357 745.025C181.43 725.115 181.101 692.699 225.357 672.789C276.568 652.831 333.405 652.831 384.616 672.789Z" fill="#8365B4"/>
<path opacity="0.65" d="M382.478 672.957C425.418 692.209 425.583 723.802 382.478 743.218C332.634 762.596 277.341 762.596 227.497 743.218C184.722 723.802 184.392 692.209 227.497 672.957C277.341 653.579 332.634 653.579 382.478 672.957Z" fill="#8060B2"/>
<path opacity="0.67" d="M380.504 672.957C422.128 691.879 422.293 722.32 380.504 741.408C332.021 760.173 278.283 760.173 229.801 741.408C188.176 722.485 187.847 692.044 229.801 672.957C278.283 654.192 332.021 654.192 380.504 672.957Z" fill="#7C5CB0"/>
<path opacity="0.69" d="M378.364 673.12C418.837 691.384 419.001 721.167 378.364 738.938C331.294 757.363 279.009 757.363 231.939 738.938C191.466 720.673 191.137 690.891 231.939 673.12C279.039 654.856 331.264 654.856 378.364 673.12Z" fill="#7857AD"/>
<path opacity="0.71" d="M376.227 673.119C415.548 691.055 415.712 719.85 376.227 737.621C330.512 755.4 279.794 755.4 234.079 737.621C194.758 719.85 194.429 691.055 234.079 673.119C279.794 655.34 330.512 655.34 376.227 673.119Z" fill="#7452AB"/>
<path opacity="0.73" d="M374.088 673.285C412.257 689.739 412.421 718.535 374.088 735.812C329.754 753.09 280.55 753.09 236.217 735.812C198.048 719.357 197.719 690.562 236.217 673.285C280.55 656.007 329.754 656.007 374.088 673.285Z" fill="#704DA9"/>
<path opacity="0.75" d="M371.948 673.449C408.966 689.904 409.13 717.218 371.948 734.002C328.942 750.79 281.197 750.79 238.191 734.002C201.338 717.547 201.173 690.068 238.191 673.449C281.191 656.629 328.948 656.629 371.948 673.449Z" fill="#6C48A6"/>
<path opacity="0.76" d="M369.809 673.449C405.675 689.904 405.84 716.067 369.809 732.192C328.156 748.319 281.984 748.319 240.33 732.192C204.629 715.738 204.464 689.739 240.33 673.449C281.975 657.275 328.165 657.275 369.809 673.449Z" fill="#6844A4"/>
<path opacity="0.78" d="M367.671 673.615C402.385 690.069 402.55 714.751 367.671 730.383C327.399 746.009 282.741 746.009 242.469 730.383C207.919 713.928 207.755 689.247 242.469 673.615C282.732 657.941 327.408 657.941 367.671 673.615Z" fill="#643FA2"/>
<path opacity="0.8" d="M365.533 673.618C398.437 688.756 398.437 713.438 365.533 728.576C326.646 743.717 283.495 743.717 244.608 728.576C211.704 713.438 211.704 688.756 244.608 673.618C283.519 658.604 326.622 658.604 365.533 673.618Z" fill="#613A9F"/>
<path opacity="0.82" d="M363.394 673.782C396.299 688.427 396.299 712.121 363.394 726.601C325.89 741.241 284.252 741.241 246.748 726.601C213.843 712.121 213.843 688.427 246.748 673.782C284.243 659.093 325.899 659.093 363.394 673.782Z" fill="#5D359D"/>
<path opacity="0.84" d="M361.421 673.945C392.516 687.931 392.516 710.803 361.421 724.79C325.302 738.945 285.171 738.945 249.052 724.79C217.957 710.803 217.792 687.931 249.052 673.945C285.171 659.789 325.302 659.789 361.421 673.945Z" fill="#59309B"/>
<path opacity="0.86" d="M359.279 673.945C389.223 687.438 389.223 709.487 359.279 723.308C324.512 736.802 285.955 736.802 251.188 723.308C221.245 709.816 221.08 687.767 251.188 673.945C285.955 660.451 324.512 660.451 359.279 673.945Z" fill="#552C98"/>
<path opacity="0.88" d="M357.142 674.11C385.769 687.109 385.934 708.171 357.142 721.17C323.757 734.163 286.714 734.163 253.328 721.17C224.537 708.171 224.372 687.109 253.328 674.11C286.714 661.117 323.757 661.117 357.142 674.11Z" fill="#512796"/>
<path opacity="0.9" d="M355.497 674.109C382.972 686.615 383.137 707.018 355.497 719.359C323.497 731.868 287.961 731.868 255.961 719.359C228.321 706.854 228.156 686.45 255.961 674.109C287.994 661.776 323.464 661.776 355.497 674.109Z" fill="#4D2294"/>
<path opacity="0.92" d="M352.863 674.272C379.187 686.119 379.351 705.535 352.863 717.547C322.224 729.442 288.244 729.442 257.605 717.547C231.116 705.535 230.952 686.119 257.605 674.272C288.223 662.264 322.245 662.264 352.863 674.272Z" fill="#491D91"/>
<path opacity="0.94" d="M350.726 674.437C375.898 685.791 376.063 704.22 350.726 715.738C321.405 727.095 288.901 727.095 259.58 715.738C234.408 704.22 234.244 685.791 259.58 674.437C288.862 662.87 321.445 662.87 350.726 674.437Z" fill="#46188F"/>
<path opacity="0.96" d="M348.586 674.438C372.606 685.298 372.771 703.069 348.586 713.764C320.678 724.782 289.626 724.782 261.718 713.764C237.697 703.069 237.533 685.298 261.718 674.438C289.647 663.534 320.656 663.534 348.586 674.438Z" fill="#42148D"/>
<path opacity="0.98" d="M364.003 693.442C364.032 678.811 337.905 666.9 305.649 666.838C273.392 666.776 247.221 678.586 247.192 693.217C247.164 707.848 273.291 719.759 305.547 719.821C337.804 719.883 363.975 708.073 364.003 693.442Z" fill="#3E0F8A"/>
<path d="M344.309 674.6C366.026 684.473 366.19 700.434 344.309 710.142C319.137 720.013 291.167 720.013 265.996 710.142C244.279 700.434 244.279 684.473 265.996 674.6C291.188 664.842 319.116 664.842 344.309 674.6Z" fill="#3A0A88"/>
</g>
<path d="M145.071 615.202C141.643 617.129 138.489 619.509 135.693 622.277L130.429 627.213L137.668 623.1L142.932 617.999C145.752 615.306 148.904 612.984 152.31 611.088L145.071 615.202Z" fill="url(#paint5_linear_222_1145)"/>
<path d="M160.701 531.945L111.344 616.851L130.099 627.546L135.364 622.61C155.436 603.523 186.531 604.181 218.777 622.61C226.674 627.473 234.157 632.976 241.152 639.064L248.227 644.823L230.787 573.246L160.701 531.945Z" fill="url(#paint6_linear_222_1145)"/>
<path d="M248.557 643.998L255.796 639.884L238.356 568.143L231.117 572.421L248.557 643.998Z" fill="#949494"/>
<path d="M231.116 572.421L238.355 568.143L167.939 527.5L160.7 531.614L231.116 572.421Z" fill="url(#paint7_linear_222_1145)"/>
<path d="M478.948 622.102C476.29 619.396 473.32 617.038 470.105 615.082L463 611C466.295 612.84 469.324 615.148 472 617.857L477.053 622.918L484 627L478.948 622.102Z" fill="url(#paint8_linear_222_1145)"/>
<path d="M454.21 531.941L503.567 616.847L484.811 627.542L479.546 622.606C459.639 603.519 428.544 604.177 396.133 622.606C388.237 627.469 380.753 632.972 373.758 639.06L366.684 644.82L384.288 573.242L454.21 531.941Z" fill="url(#paint9_linear_222_1145)"/>
<path d="M366.355 643.998L359.116 639.884L376.556 568.143L383.795 572.421L366.355 643.998Z" fill="#949494"/>
<path d="M383.794 572.421L376.555 568.143L446.97 527.5L454.374 531.614L383.794 572.421Z" fill="url(#paint10_linear_222_1145)"/>
<path d="M275.87 622H243C243.079 622.77 243.079 623.546 243 624.316V626.467L244.972 636.559C244.972 636.559 244.972 637.883 244.972 638.545C246.451 645.494 248.095 652.111 249.738 658.233L252.203 667.333C253.847 673.289 255.655 678.914 257.463 683.877L259.271 688.675C269.579 694.361 281.214 697.161 292.962 696.782H305.946C322.682 699.705 339.907 697.336 355.25 689.999C363.176 667.913 369.116 645.155 373 622H275.87Z" fill="url(#paint11_linear_222_1145)"/>
<g style="mix-blend-mode:multiply">
<path d="M276.032 622.276H243.128C243.207 623.042 243.207 623.814 243.128 624.579V626.719L245.102 636.756C245.102 636.756 245.102 638.072 245.102 638.73C246.583 645.641 248.228 652.223 249.873 658.311L252.341 667.361C253.986 673.285 255.796 678.879 257.606 683.816L259.416 688.588C266.261 692.678 273.994 695.05 281.955 695.499C276.584 687.047 273.468 677.36 272.907 667.361C302.941 668.338 332.985 665.741 362.407 659.628C365.533 648.109 368.494 635.11 370.962 620.795L276.032 622.276Z" fill="url(#paint12_linear_222_1145)"/>
</g>
<path d="M184 480.842V484C184 481.947 184 480.053 183 478C183.8 478.947 183.8 479.895 184 480.842Z" fill="url(#paint13_linear_222_1145)"/>
<path d="M367.195 104C368.512 109.92 362.914 115.84 350.731 120.444C323.573 128.669 294.583 128.669 267.425 120.444L274.669 122.582C243.717 257.92 213.26 479.591 285.206 659C292.285 659 300.188 659 308.749 659C365.713 659 387.115 649.133 394.853 643.378C413.988 590.612 426.971 535.82 433.543 480.084C433.543 477.289 433.543 474.329 434.366 471.369C435.518 461.996 436.341 452.293 437 442.262V433.711C437 421.871 437 409.702 437 397.369C434.725 295.754 410.935 195.771 367.195 104Z" fill="url(#paint14_linear_222_1145)"/>
<path style="mix-blend-mode:multiply" d="M210 604C208.393 598.56 206.607 592.95 205 587C206.607 592.95 207.679 597.88 210 604Z" fill="url(#paint15_linear_222_1145)"/>
<path style="mix-blend-mode:multiply" d="M255 113.393C253.208 112.362 251.746 110.835 250.788 108.993C249.83 107.151 249.416 105.071 249.594 103C220.862 165.078 200.161 230.613 188 298C200.191 230.833 220.891 165.519 249.594 103.66C249.54 105.622 250.014 107.563 250.966 109.277C251.917 110.99 253.311 112.413 255 113.393Z" fill="url(#paint16_linear_222_1145)"/>
<path style="mix-blend-mode:multiply" d="M180 433C180 421.938 179 410.55 179 399C179 410.225 179.333 421.45 180 433Z" fill="url(#paint17_linear_222_1145)"/>
<path style="mix-blend-mode:multiply" d="M181 444C181.789 455.606 182.895 467.048 184 478V472.442C182.421 463.125 181.632 453.644 181 444Z" fill="url(#paint18_linear_222_1145)"/>
<path style="mix-blend-mode:multiply" d="M220 635C221.105 638.057 222.053 641.113 223 644C222.053 641.113 221.105 638.226 220 635Z" fill="url(#paint19_linear_222_1145)"/>
<path d="M285 659C212.847 479.215 243.393 257.078 274.433 121.456L267.168 119.314C262.992 117.917 259.043 115.918 255.445 113.382C253.639 112.351 252.166 110.826 251.2 108.986C250.235 107.146 249.817 105.069 249.997 103C221.013 164.999 200.148 230.464 187.916 297.781C182.124 330.425 179.141 363.504 179 396.655V397.644C179 409.344 179 420.879 179.991 432.085V442.796C179.991 452.519 181.477 462.077 182.632 471.47V477.072C182.632 479.215 182.632 481.192 183.458 483.334C183.458 489.926 185.109 496.518 186.1 502.78C186.1 503.768 186.1 504.757 186.1 505.581L189.072 523.543C189.072 524.861 189.072 526.18 189.072 527.333C190.227 533.595 191.383 539.857 192.704 545.79C192.704 546.943 192.704 548.097 192.704 549.25C195.511 561.939 198.483 573.969 201.455 585.174V586.822C202.941 592.425 204.592 597.863 206.078 603.301V604.62C209.38 615.66 212.682 625.713 215.819 634.776C216.975 637.907 217.966 640.708 219.121 643.51C229.523 649.113 246.034 656.693 285 659Z" fill="url(#paint20_linear_222_1145)"/>
<path style="mix-blend-mode:multiply" opacity="0.5" d="M285 659C212.847 479.215 243.393 257.078 274.433 121.456L267.168 119.314C262.992 117.917 259.043 115.918 255.445 113.382C253.639 112.351 252.166 110.826 251.2 108.986C250.235 107.146 249.817 105.069 249.997 103C221.013 164.999 200.148 230.464 187.916 297.781C182.124 330.425 179.141 363.504 179 396.655V397.644C179 409.344 179 420.879 179.991 432.085V442.796C179.991 452.519 181.477 462.077 182.632 471.47V477.072C182.632 479.215 182.632 481.192 183.458 483.334C183.458 489.926 185.109 496.518 186.1 502.78C186.1 503.768 186.1 504.757 186.1 505.581L189.072 523.543C189.072 524.861 189.072 526.18 189.072 527.333C190.227 533.595 191.383 539.857 192.704 545.79C192.704 546.943 192.704 548.097 192.704 549.25C195.511 561.939 198.483 573.969 201.455 585.174V586.822C202.941 592.425 204.592 597.863 206.078 603.301V604.62C209.38 615.66 212.682 625.713 215.819 634.776C216.975 637.907 217.966 640.708 219.121 643.51C229.523 649.113 246.034 656.693 285 659Z" fill="url(#paint21_linear_222_1145)"/>
<path d="M248.392 575.711L266.325 627.049L259.25 629.353C251.445 631.866 243.942 635.232 236.875 639.39C200.381 662.581 171.448 695.921 153.626 735.32L148.526 746.509L129.771 757.204L177.976 616.354L248.392 575.711Z" fill="url(#paint22_linear_222_1145)"/>
<path d="M129.77 757.205L122.366 753.092L170.736 612.076L177.975 616.354L129.77 757.205Z" fill="url(#paint23_linear_222_1145)"/>
<path d="M177.974 616.354L170.735 612.076L241.151 571.434L248.39 575.712L177.974 616.354Z" fill="url(#paint24_linear_222_1145)"/>
<path d="M366.519 575.711L348.751 627.049L355.661 629.353C363.518 631.865 371.077 635.23 378.201 639.39C414.647 662.591 443.523 695.932 461.285 735.32L466.549 746.509L485.141 757.204L437.758 616.354L366.519 575.711Z" fill="url(#paint25_linear_222_1145)"/>
<path d="M485.141 757.205L492.544 753.092L444.339 612.076L436.936 616.354L485.141 757.205Z" fill="url(#paint26_linear_222_1145)"/>
<path d="M436.935 616.354L444.339 612.076L373.923 571.434L366.52 575.712L436.935 616.354Z" fill="url(#paint27_linear_222_1145)"/>
<path d="M438 433.324V441.735C426.805 450.794 395.361 466 310.082 466C224.804 466 193.03 449.824 182 441.574V433C182.988 434.941 199.945 460.5 310.576 460.5C415.939 461.147 435.201 437.044 438 433.324Z" fill="url(#paint28_linear_222_1145)"/>
<path d="M434 472C434 474.894 434 477.789 433.177 480.523C421.813 489.528 390.686 504 308.341 504C225.996 504 195.693 489.849 184 481.005C184 478.111 184 475.377 184 472.643C187.294 477.146 209.033 498.533 309.165 498.533C413.084 498.854 432.024 475.216 434 472Z" fill="url(#paint29_linear_222_1145)"/>
<path d="M366.813 104.168L365.338 101.042C349.575 66.9026 331.452 33.9135 311.1 2.31634C310.795 1.90763 310.399 1.5759 309.944 1.34742C309.489 1.11894 308.987 1 308.478 1C307.97 1 307.468 1.11894 307.013 1.34742C306.558 1.5759 306.162 1.90763 305.857 2.31634C285.607 33.9453 267.539 66.9311 251.783 101.042C251.304 102.224 250.756 103.378 250.144 104.497C248.997 110.421 254.732 116.344 266.53 120.951C293.584 129.016 322.389 129.016 349.444 120.951C362.553 115.357 368.124 109.269 366.813 104.168Z" fill="url(#paint30_linear_222_1145)"/>
<path style="mix-blend-mode:multiply" d="M267.141 120.848L274.332 123C283.398 81.4256 294.637 40.3678 308 0C307.549 0.0478139 307.112 0.190237 306.718 0.418245C306.324 0.646253 305.982 0.95485 305.712 1.32436C285.514 33.1461 267.494 66.3328 251.778 100.651C251.3 101.841 250.754 103.002 250.143 104.128C248.999 109.591 254.719 115.55 267.141 120.848Z" fill="url(#paint31_linear_222_1145)"/>
<path style="mix-blend-mode:multiply" opacity="0.3" d="M297 421C282.562 421 268.448 416.719 256.443 408.697C244.439 400.676 235.082 389.275 229.557 375.936C224.032 362.597 222.586 347.919 225.403 333.758C228.219 319.598 235.172 306.59 245.381 296.381C255.59 286.172 268.598 279.219 282.759 276.403C296.919 273.586 311.597 275.032 324.936 280.557C338.275 286.082 349.676 295.439 357.697 307.443C365.719 319.448 370 333.562 370 348C369.957 367.347 362.252 385.89 348.571 399.571C334.89 413.252 316.347 420.957 297 421Z" fill="url(#paint32_linear_222_1145)"/>
<path d="M307.5 417C292.963 417 278.753 412.719 266.666 404.697C254.579 396.676 245.158 385.275 239.595 371.936C234.032 358.597 232.576 343.919 235.412 329.758C238.248 315.598 245.248 302.59 255.528 292.381C265.807 282.172 278.903 275.219 293.161 272.403C307.419 269.586 322.197 271.032 335.627 276.557C349.058 282.082 360.537 291.439 368.613 303.443C376.689 315.448 381 329.562 381 344C381 363.361 373.256 381.929 359.472 395.619C345.688 409.309 326.993 417 307.5 417ZM307.5 279.55C294.631 279.551 282.052 283.352 271.364 290.471C260.675 297.59 252.359 307.705 247.473 319.53C242.586 331.354 241.351 344.355 243.922 356.879C246.494 369.403 252.757 380.885 261.915 389.865C271.074 398.845 282.713 404.917 295.355 407.311C307.997 409.704 321.07 408.31 332.912 403.305C344.754 398.301 354.83 389.912 361.86 379.206C368.89 368.499 372.556 355.959 372.392 343.178C372.348 326.098 365.497 309.73 353.337 297.653C341.177 285.575 324.697 278.771 307.5 278.728V279.55Z" fill="url(#paint33_linear_222_1145)"/>
<path d="M307.5 278C294.743 278 282.273 281.783 271.666 288.87C261.059 295.958 252.792 306.031 247.91 317.817C243.028 329.603 241.751 342.572 244.239 355.083C246.728 367.595 252.871 379.088 261.892 388.108C270.912 397.129 282.405 403.272 294.917 405.761C307.428 408.249 320.397 406.972 332.183 402.09C343.969 397.208 354.042 388.941 361.13 378.334C368.217 367.727 372 355.257 372 342.5C371.957 325.407 365.147 309.026 353.06 296.94C340.974 284.853 324.593 278.043 307.5 278Z" fill="url(#paint34_linear_222_1145)"/>
<path style="mix-blend-mode:multiply" opacity="0.3" d="M326.578 281.164C340.703 288.543 351.589 300.94 357.117 315.941C362.644 330.942 362.417 347.473 356.48 362.315C350.543 377.157 339.32 389.248 324.998 396.233C310.676 403.217 294.279 404.596 279 400.1C287.914 404.653 297.776 407.017 307.776 407C323.15 407.032 338.023 401.51 349.683 391.442C361.343 381.373 369.012 367.429 371.291 352.152C373.571 336.876 370.309 321.285 362.101 308.223C353.893 295.161 341.285 285.5 326.578 281V281.164Z" fill="url(#paint35_linear_222_1145)"/>
<path style="mix-blend-mode:screen" opacity="0.7" d="M437.908 608.344C447.341 607.53 456.823 609.173 465.428 613.112L467.076 614.263C468.559 615.415 470.207 616.401 471.69 617.717L476.963 622.815L484.214 626.926L503 616.237L454.387 531.713L446.972 527.602L423.242 541.251C427.032 522.34 430.493 502.113 433.129 480.407C433.129 477.611 433.129 474.651 433.953 471.691C435.107 462.318 435.931 452.616 436.59 442.585V434.034C436.59 422.194 436.59 410.025 436.59 397.692C434.491 296.058 410.847 196.02 367.214 104.161L365.73 101.037C349.878 66.9184 331.652 33.9492 311.185 2.3711C310.889 1.87167 310.444 1.47669 309.913 1.24095C309.381 1.00522 308.789 0.940413 308.219 1.05556C307.764 1.10305 307.324 1.24456 306.927 1.47105C306.529 1.69754 306.184 2.00405 305.912 2.3711C285.547 33.9809 267.378 66.9469 251.532 101.037C251.05 102.219 250.499 103.372 249.884 104.49C220.98 166.368 200.156 231.692 187.923 298.862C182.142 331.437 179.165 364.446 179.024 397.528V398.514C179.024 410.19 179.024 421.701 180.013 432.883V441.598V442.914C180.013 452.616 181.496 462.154 182.65 471.527C182.65 474.323 182.65 477.118 182.65 480.078V483.367C182.65 489.945 184.297 496.522 185.286 502.771C185.286 503.758 185.286 504.744 185.286 505.567L188.252 523.491C188.252 524.807 188.252 526.122 188.252 527.273C188.252 532.371 190.065 537.14 191.054 541.909L164.687 526.78L157.437 530.891L108 615.744L126.786 626.432L134.037 622.321L139.31 617.223C143.851 613.139 149.283 610.166 155.175 608.539C161.067 606.912 167.257 606.676 173.257 607.85L167.159 611.303L118.876 752.231L126.127 756.342L144.913 745.654L150.021 734.471C166.399 699.073 191.519 668.405 223.023 645.343C230.694 649.287 238.916 652.059 247.412 653.565C247.412 654.881 247.412 656.197 248.236 657.512L250.708 666.556C252.355 672.476 254.168 678.067 255.981 683.001L257.794 687.77L260.43 689.414C266.653 692.145 273.273 693.866 280.04 694.512L291.246 695.663H304.264C321.559 699.164 339.524 697.031 355.514 689.578C358.48 681.521 361.611 671.983 364.742 660.801L366.39 654.223C374.327 652.726 382.03 650.182 389.295 646.659C420.391 669.618 445.163 700.052 461.308 735.129L466.582 746.311L485.203 757L492.618 752.889L444.17 611.961L437.908 608.344ZM135.52 621.992C138.131 619.429 141.067 617.218 144.254 615.415C141.01 617.206 138.017 619.418 135.355 621.992H135.52ZM325.687 124.881C312.826 126.444 299.822 126.444 286.961 124.881C299.768 126.431 312.715 126.431 325.522 124.881H325.687ZM250.213 107.286C250.213 107.286 250.048 106.464 250.048 106.628L250.213 107.286Z" fill="url(#paint36_linear_222_1145)"/>
</g>
<defs>
<linearGradient id="paint0_linear_222_1145" x1="2.13876" y1="912.81" x2="610.836" y2="912.81" gradientUnits="userSpaceOnUse">
<stop stop-color="#25B3FF"/>
<stop offset="0.12" stop-color="#20A9FE"/>
<stop offset="0.71" stop-color="#0A78FC"/>
<stop offset="1" stop-color="#0165FB"/>
</linearGradient>
<linearGradient id="paint1_linear_222_1145" x1="0.981248" y1="844.636" x2="732.858" y2="760.155" gradientUnits="userSpaceOnUse">
<stop stop-color="#A1E3FF"/>
<stop offset="0.36" stop-color="#85D2FF"/>
<stop offset="0.76" stop-color="#6DC3FF"/>
<stop offset="1" stop-color="#64BDFF"/>
</linearGradient>
<linearGradient id="paint2_linear_222_1145" x1="58.6477" y1="830.052" x2="557.482" y2="830.052" gradientUnits="userSpaceOnUse">
<stop stop-color="#2571F1"/>
<stop offset="0.43" stop-color="#1449B4"/>
<stop offset="0.81" stop-color="#062983"/>
<stop offset="1" stop-color="#011D70"/>
</linearGradient>
<linearGradient id="paint3_linear_222_1145" x1="58.6477" y1="804.648" x2="557.482" y2="804.648" gradientUnits="userSpaceOnUse">
<stop stop-color="#2571F1"/>
<stop offset="0.43" stop-color="#1449B4"/>
<stop offset="0.81" stop-color="#062983"/>
<stop offset="1" stop-color="#011D70"/>
</linearGradient>
<linearGradient id="paint4_linear_222_1145" x1="56.3308" y1="716.154" x2="655.35" y2="647.007" gradientUnits="userSpaceOnUse">
<stop stop-color="#25D8EF"/>
<stop offset="0.08" stop-color="#24C9E8"/>
<stop offset="0.39" stop-color="#2092D0"/>
<stop offset="0.66" stop-color="#1D6BBE"/>
<stop offset="0.87" stop-color="#1C52B3"/>
<stop offset="1" stop-color="#1B49AF"/>
</linearGradient>
<linearGradient id="paint5_linear_222_1145" x1="129.771" y1="610.594" x2="138.491" y2="617.01" gradientUnits="userSpaceOnUse">
<stop stop-color="#2571F1"/>
<stop offset="0.43" stop-color="#1449B4"/>
<stop offset="0.81" stop-color="#062983"/>
<stop offset="1" stop-color="#011D70"/>
</linearGradient>
<linearGradient id="paint6_linear_222_1145" x1="185.214" y1="540.831" x2="177.973" y2="667.86" gradientUnits="userSpaceOnUse">
<stop stop-color="#2571F1"/>
<stop offset="0.43" stop-color="#1449B4"/>
<stop offset="0.81" stop-color="#062983"/>
<stop offset="1" stop-color="#011D70"/>
</linearGradient>
<linearGradient id="paint7_linear_222_1145" x1="133.883" y1="519.766" x2="218.945" y2="558.755" gradientUnits="userSpaceOnUse">
<stop stop-color="#25FFFB"/>
<stop offset="0.03" stop-color="#25F9FA"/>
<stop offset="0.36" stop-color="#20C2ED"/>
<stop offset="0.64" stop-color="#1E9BE5"/>
<stop offset="0.86" stop-color="#1C82DF"/>
<stop offset="1" stop-color="#1B79DD"/>
</linearGradient>
<linearGradient id="paint8_linear_222_1145" x1="485.421" y1="591.571" x2="477.411" y2="608.841" gradientUnits="userSpaceOnUse">
<stop stop-color="#2571F1"/>
<stop offset="0.43" stop-color="#1449B4"/>
<stop offset="0.81" stop-color="#062983"/>
<stop offset="1" stop-color="#011D70"/>
</linearGradient>
<linearGradient id="paint9_linear_222_1145" x1="406.169" y1="583.938" x2="491.896" y2="663.731" gradientUnits="userSpaceOnUse">
<stop stop-color="#2571F1"/>
<stop offset="0.43" stop-color="#1449B4"/>
<stop offset="0.81" stop-color="#062983"/>
<stop offset="1" stop-color="#011D70"/>
</linearGradient>
<linearGradient id="paint10_linear_222_1145" x1="476.584" y1="514.995" x2="360.917" y2="580.964" gradientUnits="userSpaceOnUse">
<stop stop-color="#25FFFB"/>
<stop offset="0.03" stop-color="#25F9FA"/>
<stop offset="0.36" stop-color="#20C2ED"/>
<stop offset="0.64" stop-color="#1E9BE5"/>
<stop offset="0.86" stop-color="#1C82DF"/>
<stop offset="1" stop-color="#1B79DD"/>
</linearGradient>
<linearGradient id="paint11_linear_222_1145" x1="353.607" y1="660.218" x2="258.613" y2="660.218" gradientUnits="userSpaceOnUse">
<stop stop-color="white"/>
<stop offset="0.22" stop-color="#EDEDED"/>
<stop offset="0.66" stop-color="#BEBEBE"/>
<stop offset="0.96" stop-color="#999999"/>
</linearGradient>
<linearGradient id="paint12_linear_222_1145" x1="353.852" y1="659.628" x2="258.758" y2="659.628" gradientUnits="userSpaceOnUse">
<stop stop-color="white"/>
<stop offset="0.22" stop-color="#EDEDED"/>
<stop offset="0.66" stop-color="#BEBEBE"/>
<stop offset="0.96" stop-color="#999999"/>
</linearGradient>
<linearGradient id="paint13_linear_222_1145" x1="444.6" y1="481" x2="274.6" y2="481" gradientUnits="userSpaceOnUse">
<stop stop-color="white"/>
<stop offset="0.22" stop-color="#EDEDED"/>
<stop offset="0.66" stop-color="#BEBEBE"/>
<stop offset="0.96" stop-color="#999999"/>
</linearGradient>
<linearGradient id="paint14_linear_222_1145" x1="398.804" y1="381.089" x2="258.864" y2="381.089" gradientUnits="userSpaceOnUse">
<stop stop-color="white"/>
<stop offset="0.22" stop-color="#EDEDED"/>
<stop offset="0.66" stop-color="#BEBEBE"/>
<stop offset="0.96" stop-color="#999999"/>
</linearGradient>
<linearGradient id="paint15_linear_222_1145" x1="459.821" y1="595.67" x2="169.107" y2="595.67" gradientUnits="userSpaceOnUse">
<stop stop-color="white"/>
<stop offset="0.22" stop-color="#EDEDED"/>
<stop offset="0.66" stop-color="#BEBEBE"/>
<stop offset="0.96" stop-color="#999999"/>
</linearGradient>
<linearGradient id="paint16_linear_222_1145" x1="438.472" y1="200.5" x2="171.782" y2="200.5" gradientUnits="userSpaceOnUse">
<stop stop-color="white"/>
<stop offset="0.22" stop-color="#EDEDED"/>
<stop offset="0.66" stop-color="#BEBEBE"/>
<stop offset="0.96" stop-color="#999999"/>
</linearGradient>
<linearGradient id="paint17_linear_222_1145" x1="443" y1="415.593" x2="171.5" y2="415.593" gradientUnits="userSpaceOnUse">
<stop stop-color="white"/>
<stop offset="0.22" stop-color="#EDEDED"/>
<stop offset="0.66" stop-color="#BEBEBE"/>
<stop offset="0.96" stop-color="#999999"/>
</linearGradient>
<linearGradient id="paint18_linear_222_1145" x1="429.526" y1="461" x2="172.474" y2="461" gradientUnits="userSpaceOnUse">
<stop stop-color="white"/>
<stop offset="0.22" stop-color="#EDEDED"/>
<stop offset="0.66" stop-color="#BEBEBE"/>
<stop offset="0.96" stop-color="#999999"/>
</linearGradient>
<linearGradient id="paint19_linear_222_1145" x1="431.105" y1="639.415" x2="174.053" y2="639.415" gradientUnits="userSpaceOnUse">
<stop stop-color="white"/>
<stop offset="0.22" stop-color="#EDEDED"/>
<stop offset="0.66" stop-color="#BEBEBE"/>
<stop offset="0.96" stop-color="#999999"/>
</linearGradient>
<linearGradient id="paint20_linear_222_1145" x1="399.255" y1="381" x2="258.913" y2="381" gradientUnits="userSpaceOnUse">
<stop stop-color="white"/>
<stop offset="0.22" stop-color="#EDEDED"/>
<stop offset="0.66" stop-color="#BEBEBE"/>
<stop offset="0.96" stop-color="#999999"/>
</linearGradient>
<linearGradient id="paint21_linear_222_1145" x1="440.368" y1="381" x2="171.57" y2="381" gradientUnits="userSpaceOnUse">
<stop stop-color="white"/>
<stop offset="0.22" stop-color="#EDEDED"/>
<stop offset="0.66" stop-color="#BEBEBE"/>
<stop offset="0.96" stop-color="#999999"/>
</linearGradient>
<linearGradient id="paint22_linear_222_1145" x1="197.718" y1="597.76" x2="198.377" y2="791.43" gradientUnits="userSpaceOnUse">
<stop stop-color="#2571F1"/>
<stop offset="0.43" stop-color="#1449B4"/>
<stop offset="0.81" stop-color="#062983"/>
<stop offset="1" stop-color="#011D70"/>
</linearGradient>
<linearGradient id="paint23_linear_222_1145" x1="196.237" y1="572.914" x2="116.425" y2="766.577" gradientUnits="userSpaceOnUse">
<stop stop-color="#25FFFB"/>
<stop offset="0.03" stop-color="#25F9FA"/>
<stop offset="0.36" stop-color="#20C2ED"/>
<stop offset="0.64" stop-color="#1E9BE5"/>
<stop offset="0.86" stop-color="#1C82DF"/>
<stop offset="1" stop-color="#1B79DD"/>
</linearGradient>
<linearGradient id="paint24_linear_222_1145" x1="257.604" y1="562.877" x2="146.706" y2="634.276" gradientUnits="userSpaceOnUse">
<stop stop-color="#25FFFB"/>
<stop offset="0.03" stop-color="#25F9FA"/>
<stop offset="0.36" stop-color="#20C2ED"/>
<stop offset="0.64" stop-color="#1E9BE5"/>
<stop offset="0.86" stop-color="#1C82DF"/>
<stop offset="1" stop-color="#1B79DD"/>
</linearGradient>
<linearGradient id="paint25_linear_222_1145" x1="443.516" y1="610.101" x2="399.084" y2="747.328" gradientUnits="userSpaceOnUse">
<stop stop-color="#2571F1"/>
<stop offset="0.43" stop-color="#1449B4"/>
<stop offset="0.81" stop-color="#062983"/>
<stop offset="1" stop-color="#011D70"/>
</linearGradient>
<linearGradient id="paint26_linear_222_1145" x1="427.393" y1="560.903" x2="492.231" y2="775.629" gradientUnits="userSpaceOnUse">
<stop stop-color="#25FFFB"/>
<stop offset="0.03" stop-color="#25F9FA"/>
<stop offset="0.36" stop-color="#20C2ED"/>
<stop offset="0.64" stop-color="#1E9BE5"/>
<stop offset="0.86" stop-color="#1C82DF"/>
<stop offset="1" stop-color="#1B79DD"/>
</linearGradient>
<linearGradient id="paint27_linear_222_1145" x1="389.553" y1="548.726" x2="430.364" y2="665.056" gradientUnits="userSpaceOnUse">
<stop stop-color="#25FFFB"/>
<stop offset="0.03" stop-color="#25F9FA"/>
<stop offset="0.36" stop-color="#20C2ED"/>
<stop offset="0.64" stop-color="#1E9BE5"/>
<stop offset="0.86" stop-color="#1C82DF"/>
<stop offset="1" stop-color="#1B79DD"/>
</linearGradient>
<linearGradient id="paint28_linear_222_1145" x1="389.434" y1="450.147" x2="235.834" y2="450.147" gradientUnits="userSpaceOnUse">
<stop stop-color="#25FFFB"/>
<stop offset="0.03" stop-color="#25F9FA"/>
<stop offset="0.36" stop-color="#20C2ED"/>
<stop offset="0.64" stop-color="#1E9BE5"/>
<stop offset="0.86" stop-color="#1C82DF"/>
<stop offset="1" stop-color="#1B79DD"/>
</linearGradient>
<linearGradient id="paint29_linear_222_1145" x1="389.204" y1="487.92" x2="235.548" y2="487.92" gradientUnits="userSpaceOnUse">
<stop stop-color="#25FFFB"/>
<stop offset="0.03" stop-color="#25F9FA"/>
<stop offset="0.36" stop-color="#20C2ED"/>
<stop offset="0.64" stop-color="#1E9BE5"/>
<stop offset="0.86" stop-color="#1C82DF"/>
<stop offset="1" stop-color="#1B79DD"/>
</linearGradient>
<linearGradient id="paint30_linear_222_1145" x1="330.6" y1="62.7034" x2="281.933" y2="62.7034" gradientUnits="userSpaceOnUse">
<stop stop-color="#25FFFB"/>
<stop offset="0.03" stop-color="#25F9FA"/>
<stop offset="0.36" stop-color="#20C2ED"/>
<stop offset="0.64" stop-color="#1E9BE5"/>
<stop offset="0.86" stop-color="#1C82DF"/>
<stop offset="1" stop-color="#1B79DD"/>
</linearGradient>
<linearGradient id="paint31_linear_222_1145" x1="339.217" y1="49.1669" x2="264.754" y2="66.455" gradientUnits="userSpaceOnUse">
<stop stop-color="#25FFFB"/>
<stop offset="0.03" stop-color="#25F9FA"/>
<stop offset="0.36" stop-color="#20C2ED"/>
<stop offset="0.64" stop-color="#1E9BE5"/>
<stop offset="0.86" stop-color="#1C82DF"/>
<stop offset="1" stop-color="#1B79DD"/>
</linearGradient>
<linearGradient id="paint32_linear_222_1145" x1="349.941" y1="246.885" x2="265.926" y2="407.682" gradientUnits="userSpaceOnUse">
<stop stop-color="white"/>
<stop offset="0.22" stop-color="#EDEDED"/>
<stop offset="0.66" stop-color="#BEBEBE"/>
<stop offset="0.96" stop-color="#999999"/>
</linearGradient>
<linearGradient id="paint33_linear_222_1145" x1="360.804" y1="242.063" x2="277.116" y2="403.165" gradientUnits="userSpaceOnUse">
<stop stop-color="#25FFFB"/>
<stop offset="0.03" stop-color="#25F9FA"/>
<stop offset="0.36" stop-color="#20C2ED"/>
<stop offset="0.64" stop-color="#1E9BE5"/>
<stop offset="0.86" stop-color="#1C82DF"/>
<stop offset="1" stop-color="#1B79DD"/>
</linearGradient>
<linearGradient id="paint34_linear_222_1145" x1="407.705" y1="230.119" x2="244.975" y2="412.759" gradientUnits="userSpaceOnUse">
<stop stop-color="#E9A139"/>
<stop offset="0.43" stop-color="#E9A139"/>
<stop offset="0.81" stop-color="#DA8F21"/>
<stop offset="1" stop-color="#B77413"/>
</linearGradient>
<linearGradient id="paint35_linear_222_1145" x1="420.262" y1="244.202" x2="260.501" y2="422.509" gradientUnits="userSpaceOnUse">
<stop stop-color="#2571F1"/>
<stop offset="0.43" stop-color="#1449B4"/>
<stop offset="0.81" stop-color="#062983"/>
<stop offset="1" stop-color="#011D70"/>
</linearGradient>
<linearGradient id="paint36_linear_222_1145" x1="307.395" y1="590.255" x2="307.395" y2="26.5442" gradientUnits="userSpaceOnUse">
<stop stop-color="#C14B91"/>
<stop offset="0.26" stop-color="#813261"/>
<stop offset="0.51" stop-color="#4A1D37"/>
<stop offset="0.73" stop-color="#220D19"/>
<stop offset="0.9" stop-color="#090407"/>
<stop offset="1"/>
</linearGradient>
<clipPath id="clip0_222_1145">
<rect width="611" height="1013" fill="white"/>
</clipPath>
</defs>
</svg>
